<?xml version="1.0" standalone="no"?>
<!DOCTYPE svg PUBLIC "-//W3C//DTD SVG 20010904//EN"
 "http://www.w3.org/TR/2001/REC-SVG-20010904/DTD/svg10.dtd">
<svg version="1.0" xmlns="http://www.w3.org/2000/svg"
 width="4000.000000pt" height="2000.000000pt" viewBox="0 0 4000.000000 2000.000000"
 preserveAspectRatio="xMidYMid meet">

<g transform="translate(0.000000,2000.000000) scale(0.100000,-0.100000)"
fill="#000000" stroke="none">
<path d="M9729 16313 c-1283 -1157 -2338 -2109 -2344 -2115 -7 -8 -3 -9 15 -4
640 171 1569 386 2275 527 1543 308 2799 470 4570 589 535 35 1440 79 1677 81
62 0 121 4 132 8 14 5 -112 104 -595 468 -338 253 -1240 930 -2005 1505
l-1390 1045 -2335 -2104z"/>
<path d="M17355 14189 c-940 -542 -2009 -1229 -2910 -1873 -1184 -845 -2281
-1777 -3567 -3032 -334 -326 -842 -843 -835 -850 2 -2 195 34 428 81 1133 226
2271 395 3374 499 1181 113 2672 192 4275 229 l94 2 113 950 c62 523 112 953
113 956 0 3 643 93 1430 200 1322 179 1428 195 1412 210 -43 41 -3693 2749
-3704 2749 -7 0 -107 -55 -223 -121z"/>
<path d="M29450 3927 c-49 -16 -133 -102 -148 -153 -30 -101 -9 -188 63 -259
55 -55 102 -75 180 -75 78 0 125 20 180 75 54 54 75 102 75 175 0 23 -5 61
-12 84 -16 55 -99 138 -154 154 -50 14 -136 14 -184 -1z m156 -98 c42 -20 74
-59 89 -107 12 -40 -4 -91 -41 -132 -64 -71 -136 -76 -205 -13 -43 39 -64 96
-54 145 13 57 93 126 149 128 11 0 39 -9 62 -21z"/>
<path d="M33030 3927 c-49 -16 -133 -102 -148 -153 -30 -101 -9 -188 63 -259
55 -55 102 -75 180 -75 61 0 115 16 151 45 l29 23 -33 35 -34 35 -49 -25 c-61
-32 -105 -26 -160 24 -74 67 -74 159 0 226 55 50 99 56 160 24 l49 -25 34 35
33 35 -29 23 c-54 43 -164 58 -246 32z"/>
<path d="M33530 3927 c-49 -16 -133 -102 -148 -153 -30 -101 -9 -188 63 -259
55 -55 102 -75 180 -75 78 0 125 20 180 75 54 54 75 102 75 175 0 23 -5 61
-12 84 -16 55 -99 138 -154 154 -50 14 -136 14 -184 -1z m156 -98 c42 -20 74
-59 89 -107 12 -40 -4 -91 -41 -132 -64 -71 -136 -76 -205 -13 -43 39 -64 96
-54 145 13 57 93 126 149 128 11 0 39 -9 62 -21z"/>
<path d="M35160 3927 c-49 -16 -133 -102 -148 -153 -30 -101 -9 -188 63 -259
55 -55 102 -75 180 -75 78 0 125 20 180 75 54 54 75 102 75 175 0 23 -5 61
-12 84 -16 55 -99 138 -154 154 -50 14 -136 14 -184 -1z m156 -98 c42 -20 74
-59 89 -107 12 -40 -4 -91 -41 -132 -64 -71 -136 -76 -205 -13 -43 39 -64 96
-54 145 13 57 93 126 149 128 11 0 39 -9 62 -21z"/>
<path d="M37510 3927 c-49 -16 -133 -102 -148 -153 -30 -101 -9 -188 63 -259
55 -55 102 -75 180 -75 78 0 125 20 180 75 54 54 75 102 75 175 0 23 -5 61
-12 84 -16 55 -99 138 -154 154 -50 14 -136 14 -184 -1z m156 -98 c42 -20 74
-59 89 -107 12 -40 -4 -91 -41 -132 -64 -71 -136 -76 -205 -13 -43 39 -64 96
-54 145 13 57 93 126 149 128 11 0 39 -9 62 -21z"/>
<path d="M18930 3690 l0 -240 55 0 55 0 0 64 0 64 108 4 c94 3 111 6 141 27
59 42 87 138 60 208 -15 42 -68 92 -109 103 -19 5 -97 10 -172 10 l-138 0 0
-240z m279 135 c36 -18 55 -62 42 -97 -17 -45 -47 -58 -133 -58 l-78 0 0 85 0
85 70 0 c43 0 82 -6 99 -15z"/>
<path d="M19450 3690 l0 -240 55 0 55 0 0 100 0 101 118 -3 117 -3 3 -97 3
-98 49 0 50 0 0 240 0 240 -50 0 -49 0 -3 -97 -3 -98 -117 -3 -118 -3 0 101 0
100 -55 0 -55 0 0 -240z"/>
<path d="M20040 3690 l0 -240 50 0 50 0 0 240 0 240 -50 0 -50 0 0 -240z"/>
<path d="M20270 3690 l0 -240 175 0 175 0 0 45 0 45 -120 0 -120 0 0 195 0
195 -55 0 -55 0 0 -240z"/>
<path d="M20720 3690 l0 -240 50 0 50 0 0 240 0 240 -50 0 -50 0 0 -240z"/>
<path d="M20950 3690 l0 -240 55 0 55 0 0 64 0 64 108 4 c94 3 111 6 141 27
59 42 87 138 60 208 -15 42 -68 92 -109 103 -19 5 -97 10 -172 10 l-138 0 0
-240z m279 135 c36 -18 55 -62 42 -97 -17 -45 -47 -58 -133 -58 l-78 0 0 85 0
85 70 0 c43 0 82 -6 99 -15z"/>
<path d="M21470 3690 l0 -240 55 0 55 0 0 64 0 64 108 4 c94 3 111 6 141 27
59 42 87 138 60 208 -15 42 -68 92 -109 103 -19 5 -97 10 -172 10 l-138 0 0
-240z m279 135 c36 -18 55 -62 42 -97 -17 -45 -47 -58 -133 -58 l-78 0 0 85 0
85 70 0 c43 0 82 -6 99 -15z"/>
<path d="M22000 3690 l0 -240 50 0 50 0 0 240 0 240 -50 0 -50 0 0 -240z"/>
<path d="M22240 3690 l0 -240 55 0 54 0 3 148 3 147 125 -147 c124 -145 125
-147 168 -147 l42 -1 0 240 0 240 -55 0 -54 0 -3 -147 -3 -146 -125 146 c-124
145 -125 146 -167 147 l-43 0 0 -240z"/>
<path d="M22820 3690 l0 -240 200 0 200 0 0 45 0 45 -145 0 -145 0 0 55 0 55
120 0 120 0 0 40 0 40 -120 0 -120 0 0 55 0 55 145 0 145 0 0 45 0 45 -200 0
-200 0 0 -240z"/>
<path d="M23570 3691 l0 -241 50 0 50 0 0 75 0 75 60 0 60 0 56 -75 56 -75 59
0 c33 0 59 2 59 5 0 3 -25 39 -56 80 l-56 75 31 29 c79 73 68 198 -22 265 -26
19 -45 21 -188 24 l-159 4 0 -241z m279 134 c48 -24 55 -72 16 -110 -22 -23
-32 -25 -110 -25 l-85 0 0 75 0 75 75 0 c47 0 87 -6 104 -15z"/>
<path d="M24120 3690 l0 -240 200 0 200 0 0 45 0 45 -145 0 -145 0 0 55 0 55
120 0 120 0 0 40 0 40 -120 0 -120 0 0 55 0 55 145 0 145 0 0 45 0 45 -200 0
-200 0 0 -240z"/>
<path d="M24761 3908 c-5 -13 -46 -115 -91 -228 -45 -113 -84 -211 -87 -217
-4 -10 10 -13 50 -13 l54 0 20 53 20 52 108 0 108 0 20 -52 20 -53 54 0 c40 0
54 3 50 13 -3 6 -46 113 -96 237 l-89 225 -66 3 c-61 3 -67 1 -75 -20z m113
-181 c14 -37 26 -72 26 -77 0 -6 -29 -10 -65 -10 -36 0 -65 4 -65 10 0 5 9 33
21 62 12 29 25 64 30 77 12 31 20 22 53 -62z"/>
<path d="M25160 3690 l0 -240 175 0 175 0 0 45 0 45 -120 0 -120 0 0 195 0
195 -55 0 -55 0 0 -240z"/>
<path d="M25510 3885 l0 -45 85 0 85 0 0 -195 0 -195 50 0 50 0 0 195 0 195
80 0 80 0 0 45 0 45 -215 0 -215 0 0 -45z"/>
<path d="M26085 3788 l95 -143 0 -97 0 -98 55 0 55 0 0 95 0 96 95 138 c52 77
95 142 95 145 0 3 -26 6 -58 6 l-57 0 -60 -90 c-33 -49 -63 -90 -67 -90 -4 0
-35 41 -68 90 l-61 90 -59 0 -60 0 95 -142z"/>
<path d="M26780 3690 l0 -240 121 0 c146 0 195 11 250 58 56 48 79 101 79 182
0 81 -23 134 -79 182 -55 47 -104 58 -250 58 l-121 0 0 -240z m274 127 c52
-30 78 -79 73 -138 -7 -86 -75 -139 -180 -139 l-57 0 0 150 0 150 63 0 c46 0
72 -6 101 -23z"/>
<path d="M27340 3690 l0 -240 200 0 200 0 0 45 0 45 -145 0 -145 0 0 55 0 55
120 0 120 0 0 40 0 40 -120 0 -120 0 0 55 0 55 145 0 145 0 0 45 0 45 -200 0
-200 0 0 -240z"/>
<path d="M27814 3912 c3 -9 45 -116 94 -237 l88 -220 58 0 58 0 94 235 c52
129 94 236 94 237 0 2 -24 3 -53 3 l-53 0 -68 -171 c-38 -94 -72 -167 -76
-162 -4 4 -36 81 -71 170 l-64 163 -53 0 c-46 0 -53 -2 -48 -18z"/>
<path d="M28390 3690 l0 -240 200 0 200 0 0 45 0 45 -145 0 -145 0 0 55 0 55
120 0 120 0 0 40 0 40 -120 0 -120 0 0 55 0 55 145 0 145 0 0 45 0 45 -200 0
-200 0 0 -240z"/>
<path d="M28900 3690 l0 -240 175 0 175 0 0 45 0 45 -120 0 -120 0 0 195 0
195 -55 0 -55 0 0 -240z"/>
<path d="M29890 3690 l0 -240 55 0 55 0 0 64 0 64 108 4 c94 3 111 6 141 27
59 42 87 138 60 208 -15 42 -68 92 -109 103 -19 5 -97 10 -172 10 l-138 0 0
-240z m279 135 c36 -18 55 -62 42 -97 -17 -45 -47 -58 -133 -58 l-78 0 0 85 0
85 70 0 c43 0 82 -6 99 -15z"/>
<path d="M30410 3690 l0 -240 55 0 54 0 3 138 3 137 58 -82 c55 -79 60 -83 96
-83 35 0 40 4 97 85 l59 84 3 -139 3 -140 49 0 50 0 0 240 0 240 -40 0 c-39 0
-40 -1 -127 -125 -48 -68 -90 -124 -93 -124 -3 -1 -45 56 -93 124 l-89 125
-44 0 -44 0 0 -240z"/>
<path d="M31080 3690 l0 -240 200 0 200 0 0 45 0 45 -145 0 -145 0 0 55 0 55
120 0 120 0 0 40 0 40 -120 0 -120 0 0 55 0 55 145 0 145 0 0 45 0 45 -200 0
-200 0 0 -240z"/>
<path d="M31590 3690 l0 -240 55 0 54 0 3 148 3 147 125 -147 c124 -145 125
-147 168 -147 l42 -1 0 240 0 240 -55 0 -54 0 -3 -147 -3 -146 -125 146 c-124
145 -125 146 -167 147 l-43 0 0 -240z"/>
<path d="M32140 3885 l0 -45 85 0 85 0 0 -195 0 -195 50 0 50 0 0 195 0 195
80 0 80 0 0 45 0 45 -215 0 -215 0 0 -45z"/>
<path d="M33980 3691 l0 -241 50 0 50 0 0 75 0 75 60 0 60 0 56 -75 56 -75 59
0 c33 0 59 2 59 5 0 3 -25 39 -56 80 l-56 75 31 29 c79 73 68 198 -22 265 -26
19 -45 21 -188 24 l-159 4 0 -241z m279 134 c48 -24 55 -72 16 -110 -22 -23
-32 -25 -110 -25 l-85 0 0 75 0 75 75 0 c47 0 87 -6 104 -15z"/>
<path d="M34510 3690 l0 -240 55 0 55 0 0 64 0 64 108 4 c94 3 111 6 141 27
59 42 87 138 60 208 -15 42 -68 92 -109 103 -19 5 -97 10 -172 10 l-138 0 0
-240z m279 135 c36 -18 55 -62 42 -97 -17 -45 -47 -58 -133 -58 l-78 0 0 85 0
85 70 0 c43 0 82 -6 99 -15z"/>
<path d="M35610 3691 l0 -241 50 0 50 0 0 75 0 75 60 0 60 0 56 -75 56 -75 59
0 c33 0 59 2 59 5 0 3 -25 39 -56 80 l-56 75 31 29 c79 73 68 198 -22 265 -26
19 -45 21 -188 24 l-159 4 0 -241z m279 134 c48 -24 55 -72 16 -110 -22 -23
-32 -25 -110 -25 l-85 0 0 75 0 75 75 0 c47 0 87 -6 104 -15z"/>
<path d="M36281 3908 c-5 -13 -46 -115 -91 -228 -45 -113 -84 -211 -87 -217
-4 -10 10 -13 50 -13 l54 0 20 53 20 52 108 0 108 0 20 -52 20 -53 54 0 c40 0
54 3 50 13 -3 6 -46 113 -96 237 l-89 225 -66 3 c-61 3 -67 1 -75 -20z m113
-181 c14 -37 26 -72 26 -77 0 -6 -29 -10 -65 -10 -36 0 -65 4 -65 10 0 5 9 33
21 62 12 29 25 64 30 77 12 31 20 22 53 -62z"/>
<path d="M36610 3885 l0 -45 85 0 85 0 0 -195 0 -195 50 0 50 0 0 195 0 195
80 0 80 0 0 45 0 45 -215 0 -215 0 0 -45z"/>
<path d="M37150 3690 l0 -240 50 0 50 0 0 240 0 240 -50 0 -50 0 0 -240z"/>
<path d="M37960 3690 l0 -240 55 0 54 0 3 148 3 147 125 -147 c124 -145 125
-147 168 -147 l42 -1 0 240 0 240 -55 0 -54 0 -3 -147 -3 -146 -125 146 c-124
145 -125 146 -167 147 l-43 0 0 -240z"/>
</g>
</svg>
